<?xml version="1.0" standalone="no"?>
<!DOCTYPE svg PUBLIC "-//W3C//DTD SVG 20010904//EN"
 "http://www.w3.org/TR/2001/REC-SVG-20010904/DTD/svg10.dtd">
<svg version="1.0" xmlns="http://www.w3.org/2000/svg"
 width="107.000000pt" height="107.000000pt" viewBox="0 0 107.000000 107.000000"
 preserveAspectRatio="xMidYMid meet">
<metadata>
Created by potrace 1.14, written by Peter Selinger 2001-2017
</metadata>
<g transform="translate(0.000000,107.000000) scale(0.100000,-0.100000)"
fill="#000000" stroke="none">
<path d="M545 1020 c-3 -5 -2 -17 3 -26 8 -14 10 -14 22 1 11 13 10 15 -4 9
-9 -3 -16 -2 -16 4 0 6 6 13 13 15 9 4 9 6 0 6 -6 1 -15 -3 -18 -9z"/>
<path d="M503 972 c-10 -17 -22 -32 -27 -32 -6 0 -1 -7 10 -16 19 -15 18 -15
-4 -11 -12 3 -20 2 -17 -3 6 -9 -19 -32 -27 -25 -2 3 -5 -2 -5 -10 0 -8 5 -11
10 -8 5 3 7 0 5 -8 -3 -8 -14 -12 -24 -11 -15 3 -14 0 6 -16 16 -13 29 -17 36
-11 6 5 15 5 19 1 5 -4 5 -1 0 7 -5 9 -3 12 6 9 7 -2 14 -18 15 -34 2 -40 2
-41 17 -47 7 -3 13 3 13 13 0 10 -5 16 -11 14 -6 -3 -11 5 -12 16 -2 19 11 28
20 13 2 -5 2 -2 0 6 -2 8 2 11 12 8 8 -4 17 -2 20 3 4 6 12 10 18 10 7 -1 2
-9 -10 -19 -27 -23 -30 -33 -6 -24 10 4 14 2 9 -5 -9 -15 14 -26 27 -13 9 9 8
11 -3 6 -11 -4 -16 1 -17 16 -2 16 1 19 9 11 16 -16 60 50 51 75 -6 16 -5 17
13 3 18 -14 18 -13 -1 9 -11 13 -34 30 -52 37 -18 8 -31 20 -29 27 1 6 1 9 -1
4 -3 -4 -9 -5 -14 -1 -5 3 -9 1 -9 -4 0 -6 7 -12 15 -16 8 -3 15 -11 15 -17 0
-9 -3 -9 -14 0 -10 9 -15 8 -19 -3 -4 -9 -1 -13 6 -10 7 2 13 -4 14 -15 2 -21
-27 -33 -48 -20 -8 5 -22 6 -31 3 -10 -3 -18 -1 -18 5 0 6 8 12 18 12 22 2 23
2 47 -6 16 -4 15 -3 -2 6 -13 7 -23 16 -23 21 0 5 5 6 10 3 6 -3 10 -3 11 2 0
4 2 17 4 27 2 11 0 27 -5 35 -7 13 -12 9 -27 -17z m25 -9 c-3 -18 -17 -33 -30
-33 -4 0 -2 11 4 25 13 29 30 34 26 8z m91 -42 c10 -6 17 -21 16 -37 0 -32
-20 -44 -23 -14 -4 42 -6 49 -12 45 -13 -8 -8 -54 6 -66 14 -12 10 -29 -7 -29
-6 0 -8 4 -5 9 3 5 -1 14 -8 20 -15 12 -16 47 -2 69 9 14 12 15 35 3z m-109
-57 c0 -7 4 -16 10 -19 5 -3 7 0 4 8 -3 9 2 13 18 12 13 -1 23 -8 23 -15 0
-18 -53 -22 -63 -4 -7 12 -11 11 -29 -6 -13 -12 -24 -16 -28 -10 -3 6 1 13 10
16 11 5 13 10 5 19 -7 9 -2 12 20 12 18 0 30 -6 30 -13z"/>
<path d="M593 971 c0 -11 5 -18 9 -15 4 3 5 11 1 19 -7 21 -12 19 -10 -4z"/>
<path d="M165 962 c2 -9 4 -20 4 -24 1 -5 6 -8 12 -8 8 0 7 6 -2 17 -12 15
-12 16 4 10 23 -9 22 0 -2 13 -16 8 -19 7 -16 -8z"/>
<path d="M895 960 c3 -5 8 -10 11 -10 2 0 4 5 4 10 0 6 -5 10 -11 10 -5 0 -7
-4 -4 -10z"/>
<path d="M205 940 c-3 -6 1 -7 9 -4 18 7 21 14 7 14 -6 0 -13 -4 -16 -10z"/>
<path d="M870 940 c0 -5 5 -10 10 -10 6 0 10 5 10 10 0 6 -4 10 -10 10 -5 0
-10 -4 -10 -10z"/>
<path d="M926 935 c7 -18 6 -18 -9 -6 -11 9 -17 10 -17 2 0 -6 5 -11 10 -11 6
0 10 -5 10 -10 0 -7 -6 -7 -19 0 -25 13 -40 13 -21 -1 12 -8 11 -9 -5 -6 -11
2 -19 8 -18 13 1 6 -5 11 -13 11 -11 0 -11 -4 3 -19 11 -13 25 -17 40 -14 15
4 26 0 33 -11 7 -12 10 -13 7 -3 -2 8 0 23 5 34 7 12 6 22 -2 30 -8 8 -9 6 -4
-9z"/>
<path d="M154 913 c3 -39 25 -62 58 -60 19 1 33 -3 36 -12 3 -8 0 -11 -5 -8
-5 3 -10 -3 -10 -14 -1 -15 1 -17 10 -6 32 35 51 60 40 53 -7 -4 -13 -2 -13 3
0 12 23 15 33 4 4 -3 -3 -18 -15 -31 -13 -14 -17 -22 -9 -17 9 5 12 3 9 -6 -3
-8 -14 -13 -24 -11 -13 2 -15 0 -7 -6 19 -12 23 -68 7 -91 -12 -16 -12 -20 1
-25 8 -3 17 0 21 6 4 7 3 8 -4 4 -14 -9 -15 4 -2 24 5 8 10 11 10 5 1 -5 8 3
16 18 8 15 20 25 26 21 7 -4 6 -9 -3 -15 -8 -5 -9 -9 -4 -9 6 0 5 -3 -1 -8 -6
-4 -19 -22 -28 -39 -9 -18 -23 -33 -32 -33 -8 0 -13 3 -11 8 3 4 -2 13 -10 21
-12 11 -14 10 -11 -5 2 -11 11 -24 22 -30 10 -6 14 -14 9 -17 -18 -11 -51 22
-49 47 2 15 -1 23 -8 20 -7 -3 -12 5 -13 17 -2 17 1 18 13 9 9 -8 14 -9 14 -2
0 6 -6 12 -12 15 -7 2 -10 7 -6 11 7 8 48 -15 48 -27 0 -4 -4 -5 -10 -2 -5 3
-10 1 -10 -5 0 -7 6 -10 13 -7 14 4 17 67 2 68 -20 2 -35 22 -30 40 4 11 2 19
-5 19 -6 0 -9 -4 -6 -9 3 -5 -1 -12 -10 -15 -24 -9 -28 -7 -15 7 8 11 5 17
-14 27 -13 7 -22 18 -18 23 3 6 1 7 -5 3 -13 -8 -5 -36 10 -33 6 1 13 -4 15
-11 3 -8 -1 -10 -14 -5 -12 4 -9 -1 8 -15 21 -17 25 -28 24 -67 -1 -26 3 -52
9 -58 15 -16 20 -51 7 -42 -21 12 -37 60 -35 102 1 26 -4 47 -12 54 -16 13
-34 3 -33 -19 1 -15 2 -15 6 1 5 20 24 18 31 -3 3 -7 0 -10 -6 -6 -13 8 -23
-19 -15 -40 5 -14 3 -15 -14 -6 -15 8 -20 8 -20 -3 0 -7 7 -11 16 -8 12 3 10
0 -4 -14 -26 -24 -29 -47 -8 -64 9 -8 14 -9 10 -3 -4 7 -1 14 6 17 10 4 14 -4
14 -24 0 -28 -7 -29 -37 -3 -13 11 -16 10 -16 -5 0 -12 5 -17 15 -13 9 3 12 1
7 -6 -5 -8 -2 -10 9 -6 10 4 15 2 13 -6 -5 -19 18 -23 35 -5 17 17 31 20 22 5
-3 -5 -1 -10 5 -10 7 0 9 7 6 16 -7 18 10 44 27 44 7 0 7 -4 -1 -12 -7 -7 -12
-17 -12 -23 0 -5 7 -1 15 9 8 11 18 16 22 11 5 -4 2 -10 -4 -12 -7 -3 -13 -11
-13 -19 0 -8 -5 -14 -11 -14 -5 0 -7 -5 -3 -12 4 -6 3 -8 -4 -4 -6 3 -14 -3
-18 -16 -4 -13 -2 -24 5 -26 6 -2 11 -8 11 -14 0 -5 16 -29 35 -53 22 -26 32
-46 25 -50 -5 -3 -16 -3 -22 1 -8 5 -7 1 1 -10 13 -16 13 -17 -5 -14 -13 2
-19 -2 -18 -14 2 -18 -7 -23 -19 -11 -4 3 0 17 8 30 15 22 11 28 -16 25 -4 -1
-6 11 -6 25 l-1 27 18 -22 c21 -26 27 -27 27 -7 0 8 -5 11 -10 8 -6 -4 -8 0
-4 10 4 12 2 14 -10 10 -12 -5 -14 -3 -8 8 5 8 -4 3 -18 -10 -15 -14 -27 -20
-27 -14 0 5 9 18 20 28 17 16 18 20 6 34 -15 18 -17 51 -3 51 6 0 8 3 5 6 -4
3 -15 1 -26 -5 -14 -7 -24 -6 -40 5 -22 15 -28 9 -23 -20 1 -5 -5 -6 -14 -3
-8 4 -15 2 -15 -4 0 -6 8 -9 18 -7 9 2 16 10 15 16 -3 14 6 15 25 3 10 -6 4
-14 -23 -30 -41 -24 -49 -26 -39 -9 4 7 3 8 -5 4 -6 -4 -9 -12 -6 -17 8 -12
35 -12 35 1 0 19 16 10 18 -10 1 -11 2 -28 3 -37 1 -10 6 -24 12 -31 5 -7 8
-13 6 -15 -47 -27 -49 -27 -55 -12 -4 8 -11 15 -16 15 -6 0 -4 -8 3 -17 12
-15 12 -16 -3 -10 -10 3 -20 2 -23 -3 -3 -4 6 -7 21 -5 18 2 24 -1 20 -12 -4
-9 -2 -11 6 -7 8 5 9 2 5 -9 -7 -19 8 -31 26 -20 16 10 39 10 55 -1 7 -5 12
-4 12 3 0 11 -13 15 -36 12 -16 -2 -23 32 -12 53 5 9 6 22 2 28 -12 20 -12 49
0 45 10 -3 13 -15 17 -62 1 -5 -2 -19 -6 -30 -4 -11 -3 -16 2 -10 14 17 36 17
30 1 -4 -10 -1 -13 8 -10 11 4 13 -1 9 -22 -7 -36 -11 -41 -26 -26 -15 15 -28
15 -28 0 0 -6 3 -8 7 -5 3 4 12 2 19 -4 8 -7 19 -7 30 -1 23 13 55 3 52 -17
-2 -12 5 -16 31 -16 19 0 36 -6 39 -13 2 -8 -3 -10 -15 -6 -15 5 -15 4 -3 -5
18 -12 9 -24 -14 -15 -9 3 -13 11 -9 17 4 6 1 7 -6 3 -14 -9 -53 22 -45 35 3
5 0 9 -5 9 -14 0 -14 -17 -1 -25 6 -4 7 -11 4 -17 -4 -7 -2 -8 5 -4 6 4 14 1
17 -7 2 -7 10 -14 17 -15 59 -8 62 -10 61 -31 -1 -21 0 -21 23 6 20 24 23 25
21 8 -2 -11 -10 -26 -18 -33 -13 -11 -11 -11 8 -2 22 11 23 10 18 -8 -5 -16 0
-24 24 -35 19 -10 30 -11 30 -5 0 6 3 8 7 5 3 -4 12 -2 18 3 9 8 14 6 19 -5 3
-9 10 -13 16 -10 6 3 7 -1 4 -10 -7 -18 15 -67 26 -60 4 3 13 -2 20 -9 10 -13
14 -12 31 2 10 9 19 22 19 29 0 13 35 31 71 36 10 2 21 6 25 9 7 8 -34 3 -61
-7 -19 -7 -19 -7 -3 10 9 10 27 19 40 21 55 8 63 12 60 29 -2 10 1 14 8 10 6
-4 18 -1 26 6 12 10 12 14 2 20 -7 5 -17 9 -23 9 -5 0 -3 -4 5 -10 8 -5 11
-12 7 -16 -3 -4 -14 -1 -22 6 -9 7 -12 17 -7 22 13 13 52 18 52 7 0 -5 5 -9
10 -9 6 0 4 10 -5 23 -14 23 -12 37 7 37 5 0 6 -5 3 -11 -8 -11 22 -49 39 -49
6 0 0 7 -12 16 -24 17 -29 34 -9 34 25 0 55 38 52 65 -2 18 2 25 11 21 7 -3
16 -1 20 5 10 17 -3 21 -27 9 -19 -10 -24 -10 -34 4 -7 8 -15 13 -18 9 -4 -3
-7 -1 -7 5 0 7 4 12 8 12 4 0 19 18 32 40 14 22 29 40 34 40 4 0 1 -12 -9 -26
-19 -29 -13 -43 9 -25 8 7 12 19 9 27 -4 10 0 12 13 8 15 -6 14 -2 -5 14 -13
12 -19 22 -13 22 6 0 14 9 17 20 7 21 35 28 35 9 0 -5 -4 -7 -10 -4 -5 3 -7 0
-4 -9 5 -12 11 -9 30 12 13 15 24 22 24 16 0 -6 -7 -17 -15 -24 -9 -7 -14 -19
-11 -27 7 -18 -9 -17 -28 2 -8 8 -17 11 -21 6 -3 -5 4 -12 15 -16 11 -4 18
-10 16 -14 -3 -4 4 -7 14 -7 10 0 17 3 14 7 -2 4 2 9 10 12 17 7 15 73 -2 70
-7 -2 -12 2 -12 7 0 6 -5 10 -11 10 -8 0 -7 -6 2 -16 12 -15 11 -16 -11 -9
-27 8 -42 24 -34 37 3 4 1 8 -5 8 -5 0 -20 14 -32 32 -13 17 -18 29 -13 25 7
-4 10 5 9 23 -1 22 2 28 17 27 20 -1 24 -12 8 -22 -5 -3 -10 -11 -10 -17 0 -6
13 4 29 22 l28 33 1 -26 c0 -14 -3 -26 -7 -25 -27 3 -32 -3 -18 -22 8 -11 13
-35 11 -52 -4 -29 -3 -30 9 -13 8 10 18 15 24 12 6 -4 19 0 29 8 10 8 14 15 7
15 -6 0 -15 -4 -18 -10 -6 -9 -55 35 -55 49 0 4 9 7 21 8 16 2 18 -1 10 -11
-9 -10 -8 -15 1 -18 21 -8 63 -2 60 8 -2 5 -10 8 -19 6 -8 -2 -12 1 -8 7 3 6
-1 21 -9 33 -9 12 -16 17 -16 11 0 -7 5 -15 10 -18 6 -3 10 -11 10 -18 0 -20
-33 21 -37 45 -9 64 -5 99 12 118 17 19 17 20 2 14 -13 -4 -16 -2 -11 9 3 8 1
18 -5 22 -11 6 -43 -7 -42 -18 3 -20 0 -29 -6 -23 -5 4 -8 13 -8 19 0 8 -16
12 -43 11 -23 -1 -42 2 -42 7 0 10 16 12 72 10 20 0 39 3 42 8 3 5 -4 9 -17
10 -54 2 -67 6 -63 18 3 7 -1 10 -10 6 -10 -4 -12 -9 -4 -18 8 -9 5 -14 -10
-18 -13 -3 -20 -12 -18 -23 2 -9 -2 -19 -9 -21 -13 -5 -10 29 4 51 4 7 0 3 -9
-7 -10 -11 -18 -16 -18 -11 0 4 -6 0 -13 -11 -8 -10 -19 -15 -25 -11 -7 4 -28
-5 -47 -20 l-36 -27 12 26 c7 15 16 27 21 27 5 0 6 -5 2 -12 -4 -7 -3 -8 5 -4
12 8 6 26 -9 26 -5 0 -19 -18 -30 -40 -23 -46 -43 -58 -65 -40 -10 9 -15 9
-15 1 0 -6 5 -11 10 -11 6 0 10 -4 10 -10 0 -5 -8 -10 -17 -10 -19 0 -83 41
-83 53 0 5 5 5 10 2 6 -3 10 -1 10 5 0 7 -8 9 -20 5 -13 -4 -31 1 -49 15 l-30
20 -15 -22 c-9 -12 -19 -19 -22 -15 -4 4 -2 12 4 20 7 8 7 18 2 27 -10 16 -12
12 -14 -33 -2 -32 -42 -65 -58 -49 -13 13 -3 42 13 42 8 0 8 -4 -1 -15 -9 -10
-9 -15 -1 -15 6 0 11 5 11 11 0 5 4 8 9 5 4 -3 7 5 7 17 -1 12 3 29 8 37 10
13 9 13 -8 0 -18 -13 -19 -13 -14 0 6 15 -8 43 -25 51 -11 5 -30 -29 -22 -41
3 -6 1 -10 -4 -10 -6 0 -16 9 -23 20 -7 11 -17 20 -22 20 -4 0 -3 -6 3 -14 9
-11 6 -13 -14 -13 -19 0 -23 3 -15 12 8 10 6 13 -6 11 -9 0 -19 4 -21 10 -2 7
7 10 27 8 19 -2 30 1 30 9 1 6 7 1 14 -12 11 -20 14 -21 19 -7 5 12 3 15 -5
10 -7 -5 -9 -2 -5 8 5 14 -8 17 -33 8 -14 -6 -36 -4 -46 2 -7 5 -11 2 -10 -9z
m770 -95 c-3 -18 -6 -53 -7 -78 -2 -39 -5 -45 -24 -46 -23 -1 -29 7 -16 19 3
4 13 1 22 -6 14 -10 14 -10 3 5 -8 9 -11 22 -7 28 4 6 0 22 -9 35 -14 21 -14
24 0 29 23 9 24 8 18 -11 -5 -15 -4 -16 5 -3 6 9 6 19 1 24 -10 10 -2 36 11
36 5 0 6 -15 3 -32z m-609 11 c11 -17 -1 -21 -15 -4 -8 9 -8 15 -2 15 6 0 14
-5 17 -11z m435 -4 c-10 -13 -11 -18 -1 -28 10 -9 11 -8 5 8 -7 18 -6 18 9 6
17 -13 15 -31 -4 -31 -5 0 -17 8 -27 18 -17 17 -17 20 -3 30 24 16 35 14 21
-3z m116 -9 c-1 -25 -37 -29 -44 -6 -5 13 -3 13 11 1 10 -7 17 -9 17 -3 0 16
-25 21 -43 7 -16 -12 -16 -13 4 -18 12 -3 18 -10 14 -17 -8 -13 12 -40 29 -40
6 0 3 5 -6 11 -24 13 -23 25 2 32 26 7 45 -25 31 -51 -19 -35 -37 -44 -52 -25
-12 15 -12 16 2 11 9 -3 22 -2 30 4 11 8 11 9 -3 4 -20 -6 -61 40 -51 58 4 7
1 7 -7 -1 -11 -10 -11 -15 0 -28 7 -8 8 -15 2 -15 -19 0 -35 29 -23 43 6 8 7
17 3 21 -11 12 24 33 56 33 23 0 29 -5 28 -21z m-623 -39 c4 3 7 1 7 -5 0 -18
-20 -24 -26 -7 -5 11 -10 13 -19 5 -9 -8 -12 -4 -12 15 l0 26 21 -21 c13 -11
26 -17 29 -13z m117 3 c0 -5 -5 -10 -11 -10 -5 0 -7 5 -4 10 3 6 8 10 11 10 2
0 4 -4 4 -10z m451 -44 c9 5 10 2 6 -10 -5 -12 0 -24 15 -36 19 -15 21 -21 11
-31 -11 -11 -13 -10 -13 0 0 8 -10 22 -22 32 -11 11 -18 19 -14 19 4 0 -5 11
-19 25 -32 33 -33 46 -1 16 15 -14 30 -20 37 -15z m-651 14 c0 -5 -4 -10 -10
-10 -5 0 -10 5 -10 10 0 6 5 10 10 10 6 0 10 -4 10 -10z m135 0 c3 -5 1 -10
-4 -10 -6 0 -11 5 -11 10 0 6 2 10 4 10 3 0 8 -4 11 -10z m-137 -32 c-4 -19
23 -78 35 -78 6 0 -2 -13 -18 -30 -39 -40 -57 -38 -19 2 16 18 21 26 11 19
-21 -17 -36 -6 -16 12 8 6 12 11 10 9 -2 -1 -13 6 -24 15 -11 10 -17 13 -14 7
4 -7 0 -14 -8 -18 -22 -8 -18 9 11 43 28 33 37 38 32 19z m807 -88 c3 -5 1
-10 -4 -10 -6 0 -11 5 -11 10 0 6 2 10 4 10 3 0 8 -4 11 -10z m-25 -34 c0 -3
-4 -8 -10 -11 -5 -3 -10 -1 -10 4 0 6 5 11 10 11 6 0 10 -2 10 -4z m-573 -51
c0 -8 -4 -12 -9 -9 -5 3 -6 10 -3 15 9 13 12 11 12 -6z m-204 -6 c-9 -9 -6
-17 10 -31 21 -18 21 -18 2 -16 -11 2 -25 9 -31 17 -9 11 -11 11 -11 -3 0 -15
10 -20 30 -17 5 1 7 -3 5 -9 -2 -7 -6 -11 -8 -10 -39 8 -48 14 -47 31 1 10 9
22 19 25 10 3 18 10 18 15 0 5 5 9 12 9 9 0 9 -3 1 -11z m807 -49 c0 -5 -4
-10 -10 -10 -5 0 -10 5 -10 10 0 6 5 10 10 10 6 0 10 -4 10 -10z m-790 -66
c-12 -14 -4 -19 23 -15 10 1 9 -11 -3 -29 -8 -12 -10 -12 -16 4 -5 14 -9 15
-16 4 -8 -10 -9 -10 -5 2 2 8 1 22 -4 30 -5 12 -2 16 13 17 16 2 17 -1 8 -13z
m122 -47 c31 -31 34 -61 9 -86 -27 -27 -35 -27 -21 -1 6 11 8 26 4 32 -5 8 -2
9 10 5 16 -6 16 -5 0 23 -14 22 -21 27 -31 18 -14 -12 -16 -8 -7 16 8 21 9 20
36 -7z m78 17 c0 -8 -19 -13 -24 -6 -3 5 1 9 9 9 8 0 15 -2 15 -3z m400 0 c0
-8 -19 -13 -24 -6 -3 5 1 9 9 9 8 0 15 -2 15 -3z m-665 -31 c0 -14 -5 -28 -10
-30 -9 -3 -13 41 -6 55 6 12 17 -3 16 -25z m162 -6 c15 5 26 -14 13 -22 -5 -3
-10 -1 -10 6 0 7 -3 9 -6 6 -4 -4 -1 -13 5 -21 10 -11 9 -19 -1 -35 -19 -30
-24 -26 -24 17 1 20 -4 36 -9 35 -6 -1 -12 8 -12 19 -2 18 0 19 15 5 9 -8 22
-12 29 -10z m508 -33 c-8 -13 -11 -24 -5 -24 5 0 10 5 10 11 0 5 5 7 10 4 7
-4 9 3 6 20 -3 18 -1 25 7 22 7 -2 11 -13 10 -23 -1 -10 0 -13 3 -6 9 19 23
14 21 -8 -1 -12 -7 -18 -14 -16 -7 3 -10 -1 -6 -9 8 -23 -24 -29 -53 -10 -24
15 -24 18 -10 34 9 10 16 23 16 30 0 7 5 9 11 6 7 -5 5 -15 -6 -31z m-540 14
c4 4 6 1 3 -7 -6 -22 -47 -22 -45 0 1 13 5 15 18 9 9 -5 20 -6 24 -2z m114
-53 c1 6 7 1 14 -10 11 -20 13 -25 16 -46 0 -5 6 -7 11 -4 6 3 10 -1 10 -9 0
-9 -4 -16 -9 -16 -16 0 -40 41 -34 59 4 9 2 13 -3 8 -5 -5 -9 -19 -9 -30 0
-13 -6 -22 -15 -22 -9 0 -14 7 -12 20 2 11 5 31 6 45 6 43 8 46 16 20 4 -14 9
-20 9 -15z m405 -17 c-4 -7 -9 -6 -14 2 -5 8 -10 8 -14 2 -3 -5 1 -12 9 -16 8
-3 15 -10 15 -16 0 -6 -5 -8 -10 -5 -6 3 -21 -3 -35 -13 -15 -12 -21 -22 -13
-24 15 -5 18 -44 4 -46 -6 0 -23 -3 -38 -5 -18 -3 -25 0 -21 8 2 7 13 11 24 8
11 -3 19 0 19 6 0 7 -4 9 -10 6 -5 -3 -10 -1 -10 4 0 6 5 11 11 11 5 0 8 4 5
8 -3 5 6 20 20 35 14 15 22 27 18 27 -3 0 -1 6 5 13 6 8 7 17 3 22 -4 4 3 2
16 -4 12 -7 20 -17 16 -23z m-434 1 c0 -6 -4 -7 -10 -4 -5 3 -10 11 -10 16 0
6 5 7 10 4 6 -3 10 -11 10 -16z m100 -81 c0 -5 -4 -6 -10 -3 -6 4 -7 -1 -3
-11 5 -14 3 -15 -15 -5 -33 18 -34 28 -2 28 17 0 30 -4 30 -9z m10 -23 c-11
-13 -10 -14 4 -9 12 4 15 2 11 -8 -4 -9 -16 -14 -28 -13 -12 1 -28 3 -34 4
-18 2 -16 21 2 21 8 0 15 -6 16 -12 0 -7 5 -3 11 10 6 12 15 22 21 22 5 0 4
-7 -3 -15z"/>
<path d="M862 756 c7 -8 15 -12 17 -11 5 6 -10 25 -20 25 -5 0 -4 -6 3 -14z"/>
<path d="M130 696 c0 -2 7 -9 15 -16 13 -11 14 -10 9 4 -5 14 -24 23 -24 12z"/>
<path d="M795 290 c-3 -5 -1 -10 4 -10 6 0 11 5 11 10 0 6 -2 10 -4 10 -3 0
-8 -4 -11 -10z"/>
<path d="M940 875 c0 -5 5 -17 10 -25 5 -8 10 -10 10 -5 0 6 -5 17 -10 25 -5
8 -10 11 -10 5z"/>
<path d="M946 784 c-7 -19 1 -34 17 -33 9 0 9 2 0 6 -7 2 -13 9 -13 14 0 6 5
7 10 4 6 -3 10 -2 10 4 0 18 -18 21 -24 5z"/>
<path d="M940 733 c0 -15 18 -35 27 -32 5 2 1 12 -9 22 -10 9 -18 14 -18 10z"/>
<path d="M965 730 c3 -5 8 -10 11 -10 2 0 4 5 4 10 0 6 -5 10 -11 10 -5 0 -7
-4 -4 -10z"/>
<path d="M980 690 c-9 -6 -10 -10 -3 -10 6 0 14 -8 16 -17 3 -10 4 -6 4 10 -1
15 -2 27 -2 27 0 0 -7 -5 -15 -10z"/>
<path d="M870 619 c0 -5 5 -7 12 -3 8 5 9 1 4 -12 -5 -14 -4 -16 5 -7 6 6 8
16 5 22 -9 14 -26 14 -26 0z"/>
<path d="M76 573 c-6 -14 -5 -15 5 -6 7 7 10 15 7 18 -3 3 -9 -2 -12 -12z"/>
<path d="M983 573 c-10 -3 -10 -9 1 -26 15 -26 14 -61 -4 -82 -12 -14 -5 -20
21 -17 4 1 7 -10 7 -23 0 -15 -6 -25 -14 -25 -8 0 -17 0 -21 -1 -4 0 -9 4 -11
10 -2 6 2 9 10 8 7 -2 10 -2 5 0 -4 3 -5 9 -1 14 3 5 1 9 -5 9 -5 0 -12 -6
-14 -12 -4 -10 -6 -10 -6 0 -1 6 -6 12 -12 12 -8 0 -7 -5 1 -16 11 -12 10 -18
-5 -32 -17 -16 -17 -16 -12 1 7 20 -1 47 -14 47 -6 0 -6 -7 0 -18 6 -11 6 -24
0 -35 -6 -9 -7 -21 -4 -27 3 -5 -3 -15 -15 -22 -22 -14 -28 -30 -7 -22 8 3 13
-4 14 -17 2 -17 -1 -18 -13 -9 -10 9 -14 9 -14 1 0 -6 -14 -20 -31 -30 -18
-11 -26 -22 -20 -25 6 -4 11 -2 11 4 0 6 5 8 10 5 6 -4 7 -11 4 -17 -4 -7 -2
-8 5 -4 6 4 9 12 5 17 -7 11 13 39 28 39 6 0 5 -7 -2 -15 -22 -26 -3 -16 29
16 17 17 35 28 41 24 6 -4 7 1 3 12 -6 15 -4 16 8 6 13 -11 15 -7 15 25 -1 30
3 37 18 37 11 0 22 -7 24 -15 5 -13 3 -13 -11 -1 -10 7 -17 9 -17 3 0 -6 6
-13 13 -15 9 -4 8 -8 -3 -16 -10 -7 -11 -11 -3 -11 7 0 17 9 23 20 6 11 15 18
20 15 5 -3 12 0 16 6 4 7 3 9 -2 6 -30 -18 -53 43 -26 66 13 10 14 8 8 -11 -5
-15 -3 -22 6 -22 10 0 9 -3 -2 -10 -12 -7 -10 -9 7 -7 20 1 21 3 8 17 -8 9
-12 20 -9 23 4 4 1 13 -5 21 -7 8 -9 21 -5 27 4 7 3 9 -3 6 -6 -4 -9 12 -8 41
2 48 -7 58 -42 45z m30 -18 c4 -8 2 -17 -3 -20 -6 -4 -10 -4 -10 -1 0 2 -3 11
-6 20 -3 9 -2 16 4 16 5 0 12 -7 15 -15z m7 -45 c0 -5 -4 -10 -10 -10 -5 0
-10 5 -10 10 0 6 5 10 10 10 6 0 10 -4 10 -10z m0 -39 c8 -17 7 -20 -10 -18
-11 1 -20 2 -20 3 0 7 13 34 16 34 2 0 8 -9 14 -19z m-69 -95 c-12 -7 -19 -15
-15 -19 4 -3 -1 -9 -10 -13 -9 -3 -13 -11 -10 -16 4 -5 14 2 24 17 11 16 20
23 24 16 7 -10 -38 -61 -53 -61 -10 0 -11 39 -1 45 5 3 6 13 3 22 -4 10 -2 14
4 10 6 -4 16 0 23 8 7 8 17 12 22 8 6 -3 1 -11 -11 -17z"/>
<path d="M60 471 c0 -4 9 -12 20 -19 12 -7 20 -8 20 -2 0 5 -5 10 -11 10 -5 0
-8 4 -5 8 3 5 -1 9 -9 9 -8 0 -15 -3 -15 -6z"/>
<path d="M47 444 c-10 -11 -8 -24 4 -24 5 0 7 5 4 10 -3 6 -2 10 4 10 5 0 12
-5 14 -10 3 -6 4 -5 3 2 -3 14 -20 21 -29 12z"/>
<path d="M87 416 c-4 -10 -1 -13 8 -9 8 3 12 9 9 14 -7 12 -11 11 -17 -5z"/>
<path d="M888 410 c-2 -6 -15 -12 -30 -13 -15 -1 -26 -6 -25 -12 1 -5 9 -9 17
-7 8 2 20 4 27 4 12 1 27 28 19 35 -2 2 -6 -1 -8 -7z"/>
<path d="M788 193 c7 -3 16 -2 19 1 4 3 -2 6 -13 5 -11 0 -14 -3 -6 -6z"/>
<path d="M450 110 c-12 -7 -10 -9 7 -7 12 0 19 5 17 9 -6 10 -6 10 -24 -2z"/>
<path d="M606 68 c3 -5 10 -6 15 -3 13 9 11 12 -6 12 -8 0 -12 -4 -9 -9z"/>
</g>
</svg>
